<svg width="56" height="56" viewBox="0 0 56 56" fill="none" xmlns="http://www.w3.org/2000/svg">
<rect width="56" height="56" rx="12" fill="white" fill-opacity="0.09"/>
<path d="M32.7502 19.56V18C32.7502 17.59 32.4102 17.25 32.0002 17.25C31.5902 17.25 31.2502 17.59 31.2502 18V19.5H24.7502V18C24.7502 17.59 24.4102 17.25 24.0002 17.25C23.5902 17.25 23.2502 17.59 23.2502 18V19.56C20.5502 19.81 19.2402 21.42 19.0402 23.81C19.0202 24.1 19.2602 24.34 19.5402 24.34H36.4602C36.7502 24.34 36.9902 24.09 36.9602 23.81C36.7602 21.42 35.4502 19.81 32.7502 19.56Z" fill="white"/>
<path d="M36 25.8398H20C19.45 25.8398 19 26.2898 19 26.8398V32.9998C19 35.9998 20.5 37.9998 24 37.9998H32C35.5 37.9998 37 35.9998 37 32.9998V26.8398C37 26.2898 36.55 25.8398 36 25.8398ZM25.21 34.2098C25.16 34.2498 25.11 34.2998 25.06 34.3298C25 34.3698 24.94 34.3998 24.88 34.4198C24.82 34.4498 24.76 34.4698 24.7 34.4798C24.63 34.4898 24.57 34.4998 24.5 34.4998C24.37 34.4998 24.24 34.4698 24.12 34.4198C23.99 34.3698 23.89 34.2998 23.79 34.2098C23.61 34.0198 23.5 33.7598 23.5 33.4998C23.5 33.2398 23.61 32.9798 23.79 32.7898C23.89 32.6998 23.99 32.6298 24.12 32.5798C24.3 32.4998 24.5 32.4798 24.7 32.5198C24.76 32.5298 24.82 32.5498 24.88 32.5798C24.94 32.5998 25 32.6298 25.06 32.6698C25.11 32.7098 25.16 32.7498 25.21 32.7898C25.39 32.9798 25.5 33.2398 25.5 33.4998C25.5 33.7598 25.39 34.0198 25.21 34.2098ZM25.21 30.7098C25.02 30.8898 24.76 30.9998 24.5 30.9998C24.24 30.9998 23.98 30.8898 23.79 30.7098C23.61 30.5198 23.5 30.2598 23.5 29.9998C23.5 29.7398 23.61 29.4798 23.79 29.2898C24.07 29.0098 24.51 28.9198 24.88 29.0798C25.01 29.1298 25.12 29.1998 25.21 29.2898C25.39 29.4798 25.5 29.7398 25.5 29.9998C25.5 30.2598 25.39 30.5198 25.21 30.7098ZM28.71 34.2098C28.52 34.3898 28.26 34.4998 28 34.4998C27.74 34.4998 27.48 34.3898 27.29 34.2098C27.11 34.0198 27 33.7598 27 33.4998C27 33.2398 27.11 32.9798 27.29 32.7898C27.66 32.4198 28.34 32.4198 28.71 32.7898C28.89 32.9798 29 33.2398 29 33.4998C29 33.7598 28.89 34.0198 28.71 34.2098ZM28.71 30.7098C28.66 30.7498 28.61 30.7898 28.56 30.8298C28.5 30.8698 28.44 30.8998 28.38 30.9198C28.32 30.9498 28.26 30.9698 28.2 30.9798C28.13 30.9898 28.07 30.9998 28 30.9998C27.74 30.9998 27.48 30.8898 27.29 30.7098C27.11 30.5198 27 30.2598 27 29.9998C27 29.7398 27.11 29.4798 27.29 29.2898C27.38 29.1998 27.49 29.1298 27.62 29.0798C27.99 28.9198 28.43 29.0098 28.71 29.2898C28.89 29.4798 29 29.7398 29 29.9998C29 30.2598 28.89 30.5198 28.71 30.7098ZM32.21 34.2098C32.02 34.3898 31.76 34.4998 31.5 34.4998C31.24 34.4998 30.98 34.3898 30.79 34.2098C30.61 34.0198 30.5 33.7598 30.5 33.4998C30.5 33.2398 30.61 32.9798 30.79 32.7898C31.16 32.4198 31.84 32.4198 32.21 32.7898C32.39 32.9798 32.5 33.2398 32.5 33.4998C32.5 33.7598 32.39 34.0198 32.21 34.2098ZM32.21 30.7098C32.16 30.7498 32.11 30.7898 32.06 30.8298C32 30.8698 31.94 30.8998 31.88 30.9198C31.82 30.9498 31.76 30.9698 31.7 30.9798C31.63 30.9898 31.56 30.9998 31.5 30.9998C31.24 30.9998 30.98 30.8898 30.79 30.7098C30.61 30.5198 30.5 30.2598 30.5 29.9998C30.5 29.7398 30.61 29.4798 30.79 29.2898C30.89 29.1998 30.99 29.1298 31.12 29.0798C31.3 28.9998 31.5 28.9798 31.7 29.0198C31.76 29.0298 31.82 29.0498 31.88 29.0798C31.94 29.0998 32 29.1298 32.06 29.1698C32.11 29.2098 32.16 29.2498 32.21 29.2898C32.39 29.4798 32.5 29.7398 32.5 29.9998C32.5 30.2598 32.39 30.5198 32.21 30.7098Z" fill="white"/>
</svg>
