<svg width="56" height="56" viewBox="0 0 56 56" fill="none" xmlns="http://www.w3.org/2000/svg">
<rect width="56" height="56" rx="12" fill="white" fill-opacity="0.09"/>
<path d="M37.97 18.33C37.25 17.51 36.18 17 35 17C33.88 17 32.86 17.46 32.13 18.21C31.71 18.64 31.39 19.16 31.2 19.74C31.07 20.14 31 20.56 31 21C31 21.75 31.21 22.46 31.58 23.06C31.78 23.4 32.04 23.71 32.34 23.97C33.04 24.61 33.97 25 35 25C35.44 25 35.86 24.93 36.25 24.79C37.17 24.5 37.94 23.87 38.42 23.06C38.63 22.72 38.79 22.33 38.88 21.93C38.96 21.63 39 21.32 39 21C39 19.98 38.61 19.04 37.97 18.33ZM36.49 21.73H35.75V22.51C35.75 22.92 35.41 23.26 35 23.26C34.59 23.26 34.25 22.92 34.25 22.51V21.73H33.51C33.1 21.73 32.76 21.39 32.76 20.98C32.76 20.57 33.1 20.23 33.51 20.23H34.25V19.52C34.25 19.11 34.59 18.77 35 18.77C35.41 18.77 35.75 19.11 35.75 19.52V20.23H36.49C36.9 20.23 37.24 20.57 37.24 20.98C37.24 21.39 36.91 21.73 36.49 21.73Z" fill="white"/>
<path d="M38 28C38 26.69 37.75 25.43 37.28 24.28C36.97 24.5 36.62 24.67 36.25 24.79C36.14 24.83 36.03 24.86 35.91 24.89C36.29 25.85 36.5 26.9 36.5 28C36.5 30.32 35.56 32.43 34.04 33.97C33.75 33.6 33.38 33.26 32.94 32.97C30.23 31.15 25.79 31.15 23.06 32.97C22.62 33.26 22.26 33.6 21.96 33.97C20.44 32.43 19.5 30.32 19.5 28C19.5 23.31 23.31 19.5 28 19.5C29.09 19.5 30.14 19.71 31.1 20.09C31.13 19.97 31.16 19.86 31.2 19.74C31.32 19.37 31.49 19.03 31.72 18.72C30.57 18.25 29.31 18 28 18C22.49 18 18 22.49 18 28C18 30.9 19.25 33.51 21.23 35.34C21.23 35.35 21.23 35.35 21.22 35.36C21.32 35.46 21.44 35.54 21.54 35.63C21.6 35.68 21.65 35.73 21.71 35.77C21.89 35.92 22.09 36.06 22.28 36.2C22.35 36.25 22.41 36.29 22.48 36.34C22.67 36.47 22.87 36.59 23.08 36.7C23.15 36.74 23.23 36.79 23.3 36.83C23.5 36.94 23.71 37.04 23.93 37.13C24.01 37.17 24.09 37.21 24.17 37.24C24.39 37.33 24.61 37.41 24.83 37.48C24.91 37.51 24.99 37.54 25.07 37.56C25.31 37.63 25.55 37.69 25.79 37.75C25.86 37.77 25.93 37.79 26.01 37.8C26.29 37.86 26.57 37.9 26.86 37.93C26.9 37.93 26.94 37.94 26.98 37.95C27.32 37.98 27.66 38 28 38C28.34 38 28.68 37.98 29.01 37.95C29.05 37.95 29.09 37.94 29.13 37.93C29.42 37.9 29.7 37.86 29.98 37.8C30.05 37.79 30.12 37.76 30.2 37.75C30.44 37.69 30.69 37.64 30.92 37.56C31 37.53 31.08 37.5 31.16 37.48C31.38 37.4 31.61 37.33 31.82 37.24C31.9 37.21 31.98 37.17 32.06 37.13C32.27 37.04 32.48 36.94 32.69 36.83C32.77 36.79 32.84 36.74 32.91 36.7C33.11 36.58 33.31 36.47 33.51 36.34C33.58 36.3 33.64 36.25 33.71 36.2C33.91 36.06 34.1 35.92 34.28 35.77C34.34 35.72 34.39 35.67 34.45 35.63C34.56 35.54 34.67 35.45 34.77 35.36C34.77 35.35 34.77 35.35 34.76 35.34C36.75 33.51 38 30.9 38 28Z" fill="white"/>
<path d="M28 22.9302C25.93 22.9302 24.25 24.6102 24.25 26.6802C24.25 28.7102 25.84 30.3602 27.95 30.4202C27.98 30.4202 28.02 30.4202 28.04 30.4202C28.06 30.4202 28.09 30.4202 28.11 30.4202C28.12 30.4202 28.13 30.4202 28.13 30.4202C30.15 30.3502 31.74 28.7102 31.75 26.6802C31.75 24.6102 30.07 22.9302 28 22.9302Z" fill="white"/>
</svg>
