<svg width="15" height="15" viewBox="0 0 15 15" fill="none" xmlns="http://www.w3.org/2000/svg">
<path d="M13.569 11.8102C14.1631 10.9976 14.5858 10.073 14.8113 9.0925C15.0368 8.11198 15.0605 7.09596 14.8809 6.10603C14.7013 5.1161 14.3222 4.17287 13.7666 3.33356C13.211 2.49424 12.4904 1.77631 11.6486 1.22329C10.8067 0.670262 9.86111 0.293671 8.86911 0.116339C7.87711 -0.060994 6.85936 -0.0353718 5.87758 0.191653C4.8958 0.418678 3.97043 0.842372 3.15757 1.43705C2.34471 2.03174 1.6613 2.78502 1.14877 3.65123L1.1162 3.68373C1.10294 3.70517 1.0935 3.72873 1.08829 3.75339C0.339563 4.97375 -0.0375231 6.38512 0.00294708 7.81562C0.0434173 9.24611 0.499693 10.634 1.31623 11.8102V11.8102C1.31623 11.8102 1.31623 11.8102 1.31623 11.8381C2.0003 12.8112 2.90829 13.6062 3.96394 14.1564C5.01959 14.7066 6.19208 14.9959 7.38293 15C8.57379 15.0041 9.74825 14.7228 10.8077 14.1799C11.8671 13.637 12.7805 12.8482 13.4713 11.8799C13.4924 11.8588 13.5111 11.8354 13.5271 11.8102H13.569ZM13.0247 10.9372C12.1171 10.4185 11.1418 10.0278 10.1267 9.77627C10.2033 9.04971 10.2421 8.31967 10.243 7.58909C10.243 7.00863 10.2151 6.42352 10.1685 5.85698C11.2436 5.58717 12.2722 5.1583 13.2201 4.58461C13.7402 5.57009 13.9956 6.67328 13.9613 7.78662C13.9271 8.89996 13.6044 9.98543 13.0247 10.9372V10.9372ZM7.44261 14.0903C6.8937 14.0903 6.16338 12.7529 5.8052 10.51C6.88333 10.3325 7.9833 10.3325 9.06144 10.51C8.72186 12.739 7.99152 14.0903 7.44261 14.0903ZM7.44261 9.44657C6.85358 9.44759 6.26557 9.49573 5.68425 9.59053C5.61515 8.92562 5.58099 8.25756 5.58191 7.58909C5.58191 7.04578 5.60517 6.53497 5.64238 6.04738C6.23737 6.14603 6.83947 6.19573 7.44261 6.19598C8.04566 6.1934 8.64757 6.14371 9.24285 6.04738C9.28006 6.51175 9.30332 7.04578 9.30332 7.58909C9.30424 8.25756 9.27008 8.92562 9.20098 9.59053C8.61965 9.49573 8.03165 9.44759 7.44261 9.44657V9.44657ZM7.44261 1.08791C8.02874 1.08791 8.83815 2.60175 9.14516 5.11864C8.01881 5.31677 6.86642 5.31677 5.74006 5.11864C6.04708 2.60175 6.85649 1.08791 7.44261 1.08791ZM12.7224 3.79519C11.8948 4.29787 10.9985 4.67796 10.0616 4.9236C9.93786 3.65094 9.57155 2.41363 8.98235 1.2783C10.4895 1.64575 11.8158 2.53828 12.7224 3.79519ZM5.90288 1.2783C5.31368 2.41363 4.94736 3.65094 4.82366 4.9236C3.88671 4.67796 2.99042 4.29787 2.16285 3.79519C3.0694 2.53828 4.39568 1.64575 5.90288 1.2783V1.2783ZM1.67442 4.58461C2.62235 5.1583 3.65092 5.58717 4.72598 5.85698C4.67946 6.42816 4.65155 7.00863 4.65155 7.58909C4.65244 8.31967 4.69125 9.04971 4.76785 9.77627C3.75275 10.0278 2.77746 10.4185 1.86979 10.9372C1.29014 9.98543 0.967471 8.89996 0.93323 7.78662C0.898989 6.67328 1.15435 5.57009 1.67442 4.58461V4.58461ZM2.40475 11.7034C3.18563 11.2594 4.02266 10.9221 4.89344 10.7004C5.0352 11.8186 5.37712 12.9024 5.90288 13.8999C4.52888 13.5663 3.301 12.7953 2.40475 11.7034ZM8.98235 13.8999C9.50811 12.9024 9.85003 11.8186 9.99179 10.7004C10.8626 10.9221 11.6996 11.2594 12.4805 11.7034C11.5842 12.7953 10.3563 13.5663 8.98235 13.8999V13.8999Z" fill="#0096F8"/>
</svg>
