<svg width="48" height="48" viewBox="0 0 48 48" fill="none" xmlns="http://www.w3.org/2000/svg">
<path d="M24.0068 28.1855C25.6948 28.1856 27.3408 28.6131 28.5508 29.4219V29.4229C29.3218 29.9418 29.753 30.5361 29.9209 31.1006C28.3149 32.4451 26.2557 33.2509 24 33.251C21.744 33.2509 19.6842 32.4454 18.0781 31.1006C18.246 30.5361 18.6773 29.9418 19.4482 29.4229L19.4473 29.4219C20.6682 28.6122 22.3198 28.1857 24.0068 28.1855ZM24 14C29.5228 14 34 18.4772 34 24C34 26.6009 33.0064 28.9694 31.3789 30.748C31.1076 29.7546 30.4054 28.863 29.3887 28.1787L29.3867 28.1768C27.8771 27.1668 25.9224 26.6846 24.0068 26.6846C22.0912 26.6847 20.1335 27.1675 18.6152 28.1758L18.6113 28.1787C17.5948 28.8628 16.8918 29.7539 16.6201 30.7471C14.9932 28.9685 14 26.6004 14 24C14 18.4772 18.4772 14 24 14ZM24.001 17.4795C21.7653 17.4795 19.9707 19.288 19.9707 21.5107C19.9711 23.6859 21.6929 25.4565 23.8555 25.5303C23.8948 25.5316 23.9346 25.5293 23.9736 25.5244C23.9808 25.5236 23.9928 25.5234 24.0049 25.5234C24.0099 25.5234 24.0141 25.5233 24.0166 25.5234L24.0146 25.5225C24.0581 25.5286 24.1027 25.5318 24.1465 25.5303C26.3126 25.4561 28.0178 23.6826 28.0303 21.5146V21.5107C28.0303 19.2868 26.2249 17.4799 24.001 17.4795ZM24.001 18.9805C25.3092 18.9808 26.3878 19.9775 26.5176 21.252L26.5303 21.5107C26.52 22.8675 25.466 23.9625 24.1318 24.0273C24.0518 24.0213 23.9698 24.0243 23.8916 24.0293C22.5416 23.9756 21.4711 22.87 21.4707 21.5107C21.4707 20.1135 22.5967 18.9805 24.001 18.9805Z" fill="#0096F8"/>
</svg>
