<svg width="49" height="48" viewBox="0 0 49 48" fill="none" xmlns="http://www.w3.org/2000/svg">
<path d="M28.5 16.02C31.83 16.2 33.5 17.43 33.5 22V28C33.5 32 32.5 34 27.5 34H21.5C16.5 34 15.5 32 15.5 28V22C15.5 17.44 17.17 16.2 20.5 16.02" fill="#0096F8"/>
<path d="M28.5 16.02C31.83 16.2 33.5 17.43 33.5 22V28C33.5 32 32.5 34 27.5 34H21.5C16.5 34 15.5 32 15.5 28V22C15.5 17.44 17.17 16.2 20.5 16.02" stroke="#0096F8" stroke-width="1.5" stroke-miterlimit="10" stroke-linecap="round" stroke-linejoin="round"/>
<path d="M20.5 24.2002H27.5" stroke="white" stroke-width="1.5" stroke-miterlimit="10" stroke-linecap="round" stroke-linejoin="round"/>
<path d="M20.5 28.2002H24.88" stroke="white" stroke-width="1.5" stroke-miterlimit="10" stroke-linecap="round" stroke-linejoin="round"/>
<path d="M22.5 18H26.5C28.5 18 28.5 17 28.5 16C28.5 14 27.5 14 26.5 14H22.5C21.5 14 20.5 14 20.5 16C20.5 18 21.5 18 22.5 18Z" fill="#0096F8" stroke="white" stroke-width="1.5" stroke-miterlimit="10" stroke-linecap="round" stroke-linejoin="round"/>
</svg>
