<svg width="12" height="15" viewBox="0 0 12 15" fill="none" xmlns="http://www.w3.org/2000/svg">
<path d="M6 0.000976562C7.59138 0.000976563 9.11788 0.633553 10.2432 1.75879C11.3684 2.88404 12.001 4.41061 12.001 6.00195C12.0007 8.93267 9.19378 11.8724 6.31836 14.6416L6.00977 14.9414L5.69141 14.6514C3.09292 12.2791 0.000300981 8.85426 0 6.00195C0 4.41061 0.632529 2.88404 1.75781 1.75879C2.883 0.633722 4.40881 0.00106889 6 0.000976562ZM6 0.924805C4.65364 0.924897 3.36222 1.45918 2.41016 2.41113C1.45799 3.36327 0.922852 4.65543 0.922852 6.00195C0.923115 7.90352 2.72776 10.6176 6 13.6729C8.61231 11.1206 11.0769 8.47114 11.0771 6.00195C11.0771 4.65543 10.543 3.36327 9.59082 2.41113C8.63866 1.45901 7.34655 0.924805 6 0.924805ZM6 3.69336C6.61201 3.69338 7.19906 3.93642 7.63184 4.36914C8.06459 4.80188 8.30757 5.38899 8.30762 6.00098C8.30762 6.45736 8.17248 6.90372 7.91895 7.2832C7.66536 7.66271 7.30451 7.95814 6.88281 8.13281C6.46117 8.30744 5.99741 8.35366 5.5498 8.26465C5.10213 8.1756 4.69092 7.95556 4.36816 7.63281C4.04543 7.31007 3.82537 6.89881 3.73633 6.45117C3.64734 6.00358 3.69352 5.53978 3.86816 5.11816C4.04284 4.69648 4.33826 4.33561 4.71777 4.08203C5.09726 3.82851 5.54361 3.69336 6 3.69336ZM6.53027 4.72168C6.27725 4.61688 5.9981 4.59013 5.72949 4.64355C5.46103 4.69703 5.21407 4.8289 5.02051 5.02246C4.82704 5.21606 4.695 5.46301 4.6416 5.73145C4.58829 5.99991 4.61596 6.27838 4.7207 6.53125C4.82549 6.78412 5.0029 7.00024 5.23047 7.15234C5.45818 7.30449 5.72613 7.38574 6 7.38574C6.36722 7.38572 6.71983 7.24013 6.97949 6.98047C7.2391 6.72081 7.38477 6.36816 7.38477 6.00098C7.38473 5.72719 7.30348 5.4591 7.15137 5.23145C6.99928 5.00395 6.78307 4.82646 6.53027 4.72168Z" fill="#0096F8"/>
</svg>
