<svg width="48" height="48" viewBox="0 0 48 48" fill="none" xmlns="http://www.w3.org/2000/svg">
<path d="M14.3389 15.7581C12.8003 17.7887 11.8868 20.3196 11.8867 23.0637C11.8868 29.7514 17.3085 35.1729 23.9961 35.1731C30.6839 35.1731 36.1054 29.7515 36.1055 23.0637C36.1054 20.3536 35.2151 17.8509 33.7109 15.8333C38.2154 16.9051 42.4813 18.7358 46.4336 21.3313C46.5675 21.4192 46.7097 21.4856 46.8545 21.5354L47.0684 21.7493C48.3117 22.9926 48.3117 25.0079 47.0684 26.2512L26.252 47.0676C25.0086 48.311 22.9924 48.311 21.749 47.0676L0.932617 26.2512C-0.310661 25.0079 -0.310708 22.9926 0.932617 21.7493L1.20605 21.4758C1.29741 21.4351 1.3873 21.388 1.47363 21.3313C5.52428 18.6711 9.79977 16.8174 14.3389 15.7581ZM24.0762 14.6985C26.1297 14.7177 28.0049 15.477 29.4512 16.7219C29.2118 16.6423 28.9556 16.5979 28.6895 16.5979C27.3575 16.5981 26.2777 17.6782 26.2773 19.01C26.2773 20.3422 27.3573 21.4229 28.6895 21.4231C30.0218 21.4231 31.1016 20.3423 31.1016 19.01C31.1015 18.8643 31.0863 18.7218 31.0615 18.5833C31.8848 19.8788 32.3642 21.4151 32.3643 23.0637C32.3642 27.6849 28.6175 31.4309 23.9961 31.4309C19.3748 31.4307 15.628 27.6848 15.6279 23.0637C15.6282 18.4572 19.3517 14.7208 23.9531 14.6975C23.9941 14.6976 24.0353 14.6982 24.0762 14.6985ZM21.749 0.932861C22.9924 -0.310462 25.0086 -0.310462 26.252 0.932861L38.7168 13.3977C34.1394 11.8195 29.3103 11.0088 24.3135 10.9583C24.2081 10.9555 24.1021 10.9543 23.9961 10.9543H23.8135C18.7482 10.9544 13.9464 11.7314 9.39062 13.2903L21.749 0.932861Z" fill="url(#paint0_linear_348_2509)"/>
<defs>
<linearGradient id="paint0_linear_348_2509" x1="32.237" y1="12.515" x2="13.2052" y2="39.0367" gradientUnits="userSpaceOnUse">
<stop stop-color="#36E320"/>
<stop offset="0.725962" stop-color="#0096F8"/>
</linearGradient>
</defs>
</svg>
