<svg width="51" height="48" viewBox="0 0 51 48" fill="none" xmlns="http://www.w3.org/2000/svg">
<g clip-path="url(#clip0_203_2227)">
<path fill-rule="evenodd" clip-rule="evenodd" d="M37.4043 11.3384L27.2127 1.23488C25.545 -0.41423 22.8196 -0.41423 21.1518 1.23488L10.9639 11.3347L8.26074 14.0136L8.39387 14.0429C11.282 12.6797 14.5768 11.8148 17.7423 11.3347C20.0276 10.9793 22.2427 10.829 24.1804 10.829C26.1255 10.829 28.3517 10.9793 30.6444 11.3347C33.9171 11.8405 37.3377 12.7493 40.2924 14.2005L37.4006 11.3347L37.4043 11.3384Z" fill="#43AD4C"/>
<path fill-rule="evenodd" clip-rule="evenodd" d="M18.0158 11.3384C15.4087 11.7085 12.8312 12.3425 10.4165 13.2697C9.56595 13.5958 8.70063 13.977 7.8501 14.413L8.25317 14.0173L10.9564 11.3384H18.0084H18.0158Z" fill="#43AD4C"/>
<path fill-rule="evenodd" clip-rule="evenodd" d="M40.5076 14.4094C39.6645 13.9733 38.7991 13.5922 37.9523 13.2697C35.5413 12.3425 32.9638 11.7085 30.353 11.3384H37.405L40.5039 14.4094H40.5076Z" fill="#43AD4C"/>
<path fill-rule="evenodd" clip-rule="evenodd" d="M32.2755 15.776C34.3057 17.8099 35.5593 20.6061 35.5593 23.6954C35.5593 29.918 30.4635 34.9643 24.1807 34.9643C20.2941 34.9643 16.8587 33.0257 14.8064 30.072C16.7219 32.0142 19.3955 33.2236 22.3576 33.2236C28.1893 33.2236 32.9152 28.5365 32.9152 22.7572C32.9152 19.9281 31.7837 17.3592 29.9384 15.4755C28.0931 15.2813 26.1628 15.1787 24.1807 15.1787C15.2464 15.1787 7.40308 17.2859 2.96924 20.4558C5.91651 15.7907 14.2998 12.4302 24.1807 12.4302C34.0616 12.4302 42.4486 15.7907 45.3921 20.4558C42.3672 18.29 37.7448 16.6189 32.2718 15.7834L32.2755 15.776Z" fill="#43AD4C"/>
<path d="M10.4209 13.2697C9.57034 13.5958 8.70502 13.977 7.85449 14.4131L8.25757 14.0173L10.9608 11.3384L21.1523 1.23488C22.8201 -0.41423 25.5455 -0.41423 27.2133 1.23488L37.4048 11.3347L40.5037 14.4057C39.6606 13.9696 38.7952 13.5885 37.9484 13.266C35.5373 12.3389 32.9599 11.7049 30.3491 11.3347H30.645C28.3485 10.9793 26.1261 10.829 24.1809 10.829C22.2432 10.829 20.0281 10.9793 17.7428 11.3347H18.0165C15.4094 11.7049 12.8319 12.3389 10.4172 13.266L10.4209 13.2697Z" fill="#43AD4C"/>
<path d="M24.1807 15.1719C15.2464 15.1719 7.40308 17.279 2.96924 20.449C5.91651 15.7839 14.2998 12.4233 24.1807 12.4233C34.0616 12.4233 42.4486 15.7839 45.3921 20.449C42.3672 18.2832 37.7448 16.6121 32.2718 15.7765C34.302 17.8104 35.5556 20.6066 35.5556 23.6959C35.5556 29.9185 30.4598 34.9648 24.177 34.9648C20.2904 34.9648 16.855 33.0262 14.8027 30.0724C16.7182 32.0147 19.3918 33.2241 22.3539 33.2241C28.1856 33.2241 32.9115 28.5369 32.9115 22.7577C32.9115 19.9286 31.78 17.3597 29.9347 15.476C28.0894 15.2818 26.1591 15.1792 24.177 15.1792L24.1807 15.1719Z" fill="#0F84C7"/>
<path d="M48.3692 24.5352C48.2546 25.4404 47.8515 26.3126 47.1563 27.0016L27.2132 46.7579C25.5454 48.4106 22.8201 48.4106 21.156 46.7579L1.21293 27.0052C0.517713 26.3163 0.110939 25.4441 0 24.5389C1.30168 23.6081 2.60336 22.6736 3.90873 21.7428C5.01072 20.9585 6.26433 20.2805 7.61408 19.7052C7.90252 19.5843 8.19466 19.4633 8.49049 19.3497C8.59404 19.3057 8.70498 19.2691 8.81222 19.2288C9.05258 19.1372 9.30035 19.0529 9.54441 18.9649C10.2322 18.7304 10.9385 18.5215 11.6522 18.3273C12.0035 18.232 12.3586 18.1477 12.7099 18.0597C13.0686 17.9718 13.4236 17.8948 13.7823 17.8179C14.141 17.7446 14.4997 17.6713 14.8621 17.6053C15.2208 17.5394 15.5795 17.4771 15.9419 17.4184C16.2562 17.3671 16.5742 17.3195 16.8848 17.2755C16.9884 17.2572 17.0882 17.2462 17.1955 17.2315C17.8315 17.1436 18.4676 17.0703 19.0925 17.0116C19.2219 16.997 19.3551 16.986 19.4808 16.9787C19.4993 16.975 19.5141 16.975 19.5326 16.975C19.7582 16.953 19.9837 16.931 20.2056 16.92C20.2648 16.9127 20.3313 16.9054 20.3942 16.9054C20.7714 16.8761 21.1449 16.8541 21.5073 16.8357C21.755 16.8174 22.0028 16.8101 22.2469 16.8028C22.539 16.7881 22.8311 16.7808 23.1122 16.7771C23.2009 16.7734 23.286 16.7734 23.3747 16.7734C23.6484 16.7661 23.9146 16.7661 24.1809 16.7661C24.5803 16.7661 24.976 16.7698 25.379 16.7808C25.4345 16.7808 25.4937 16.7844 25.5491 16.7844C25.8191 16.7918 26.0927 16.8028 26.3627 16.8138C25.8191 17.0776 25.3642 17.499 25.0684 18.0231C24.8169 18.4555 24.6764 18.9503 24.6764 19.4816C24.6764 21.1161 26.0225 22.45 27.6718 22.45C29.3211 22.45 30.6634 21.1161 30.6634 19.4816V19.4413C30.7041 19.5403 30.7411 19.6392 30.778 19.7382C30.8076 19.8261 30.8372 19.9141 30.8668 20.002C30.8816 20.0277 30.889 20.0533 30.8927 20.079C30.9223 20.1669 30.9481 20.2512 30.9703 20.3392C30.9999 20.4381 31.0295 20.5407 31.0517 20.647C31.085 20.7753 31.1183 20.9072 31.1404 21.0391C31.1441 21.0465 31.1441 21.0575 31.1441 21.0648C31.1663 21.1601 31.1848 21.2553 31.1959 21.3506C31.2033 21.4166 31.2181 21.4789 31.2255 21.5485L31.2403 21.6401C31.2551 21.7464 31.2662 21.8564 31.2736 21.9663C31.2958 22.2265 31.3069 22.4867 31.3069 22.7542C31.3069 27.6575 27.2983 31.6301 22.3541 31.6301C21.6108 31.6301 20.8786 31.5384 20.1723 31.3625C19.2072 31.0767 18.2346 30.6296 17.2842 30.0726C15.72 29.0098 11.5894 25.4991 10.4763 24.2677C11.0088 25.7849 12.5287 29.5998 13.479 30.9741C15.9049 34.4702 19.8876 36.5591 24.1772 36.5591C31.3475 36.5591 37.1607 30.7982 37.1607 23.696C37.1607 22.7249 37.0535 21.7647 36.839 20.8302H36.8353C36.8168 20.7533 36.802 20.68 36.7798 20.603C36.7539 20.4858 36.7243 20.3685 36.6874 20.2586C36.4877 19.522 36.214 18.8037 35.8775 18.1184C38.9431 18.877 42.0679 20.0387 44.4568 21.7428L46.3538 23.1023L48.3655 24.5389L48.3692 24.5352Z" fill="url(#paint0_linear_203_2227)"/>
</g>
<defs>
<linearGradient id="paint0_linear_203_2227" x1="48.0586" y1="32.385" x2="-0.310629" y2="32.385" gradientUnits="userSpaceOnUse">
<stop offset="0.13" stop-color="#43AD4C"/>
<stop offset="0.25" stop-color="#38A465"/>
<stop offset="0.53" stop-color="#21929A"/>
<stop offset="0.73" stop-color="#1488BA"/>
<stop offset="0.85" stop-color="#0F84C7"/>
</linearGradient>
<clipPath id="clip0_203_2227">
<rect width="51" height="48" fill="white"/>
</clipPath>
</defs>
</svg>
