<svg width="48" height="48" viewBox="0 0 48 48" fill="none" xmlns="http://www.w3.org/2000/svg">
<path d="M22.1992 15.3447C23.1907 14.5484 24.8018 14.5512 25.8125 15.3564L32.3564 20.5908V20.5918C32.6932 20.8665 32.9982 21.3092 33.1973 21.8301C33.3964 22.3511 33.4646 22.8864 33.3984 23.3164L32.1406 30.8418C31.9121 32.1571 30.6203 33.25 29.2998 33.25H18.7002C17.4418 33.25 16.2555 32.3145 15.9238 31.0996L15.8691 30.8535L14.6094 23.3164V23.3145C14.5362 22.8826 14.6002 22.3493 14.7979 21.8311C14.9955 21.3129 15.3031 20.8715 15.6475 20.5967L15.6494 20.5957L22.1992 15.3457V15.3447ZM24 25.5C23.1758 25.5 22.5 26.1758 22.5 27V30C22.5 30.8242 23.1758 31.5 24 31.5C24.8242 31.5 25.5 30.8242 25.5 30V27C25.5 26.1758 24.8242 25.5 24 25.5Z" stroke="black" stroke-width="1.5"/>
</svg>
