<svg width="48" height="48" viewBox="0 0 48 48" fill="none" xmlns="http://www.w3.org/2000/svg">
<rect x="0.5" y="0.5" width="47" height="47" rx="11.5" stroke="#DFDFDF" stroke-opacity="0.9"/>
<path d="M24.0201 14.9102C20.7101 14.9102 18.0201 17.6002 18.0201 20.9102V23.8002C18.0201 24.4102 17.7601 25.3402 17.4501 25.8602L16.3001 27.7702C15.5901 28.9502 16.0801 30.2602 17.3801 30.7002C21.6901 32.1402 26.3401 32.1402 30.6501 30.7002C31.8601 30.3002 32.3901 28.8702 31.7301 27.7702L30.5801 25.8602C30.2801 25.3402 30.0201 24.4102 30.0201 23.8002V20.9102C30.0201 17.6102 27.3201 14.9102 24.0201 14.9102Z" stroke="#292D32" stroke-width="1.5" stroke-miterlimit="10" stroke-linecap="round"/>
<path d="M25.8699 15.1999C25.5599 15.1099 25.2399 15.0399 24.9099 14.9999C23.9499 14.8799 23.0299 14.9499 22.1699 15.1999C22.4599 14.4599 23.1799 13.9399 24.0199 13.9399C24.8599 13.9399 25.5799 14.4599 25.8699 15.1999Z" stroke="#292D32" stroke-width="1.5" stroke-miterlimit="10" stroke-linecap="round" stroke-linejoin="round"/>
<path d="M27.02 31.0601C27.02 32.7101 25.67 34.0601 24.02 34.0601C23.2 34.0601 22.44 33.7201 21.9 33.1801C21.36 32.6401 21.02 31.8801 21.02 31.0601" stroke="#292D32" stroke-width="1.5" stroke-miterlimit="10"/>
<circle cx="31" cy="16" r="3" fill="#0096F8"/>
</svg>
