<svg width="12" height="12" viewBox="0 0 12 12" fill="none" xmlns="http://www.w3.org/2000/svg">
<path d="M2.16016 0.178711C2.28959 0.182375 2.41711 0.211346 2.53516 0.264648C2.65335 0.318098 2.76015 0.395268 2.84863 0.490234L3.63574 1.27832C3.8914 1.53442 4.1428 1.78296 4.39453 2.03906C4.49849 2.12557 4.5822 2.2339 4.63965 2.35645C4.69706 2.47899 4.7275 2.61268 4.72754 2.74805C4.72754 2.88341 4.69703 3.01709 4.63965 3.13965C4.5822 3.26226 4.49854 3.37146 4.39453 3.45801C4.07596 3.78107 3.76098 4.09985 3.43848 4.41504C3.40021 4.44412 3.37465 4.487 3.36523 4.53418C3.35588 4.5813 3.36356 4.63035 3.3877 4.67188C3.60992 5.17325 3.90264 5.64021 4.25684 6.05859C4.93563 6.92223 5.75205 7.66878 6.67285 8.2666C6.87349 8.3927 7.09814 8.48337 7.30664 8.59766C7.32708 8.61247 7.35041 8.62323 7.375 8.62891C7.39963 8.63459 7.4253 8.63524 7.4502 8.63086C7.47516 8.62645 7.49925 8.61637 7.52051 8.60254C7.54166 8.58873 7.5601 8.57078 7.57422 8.5498C7.89286 8.22273 8.21551 7.89927 8.53809 7.58008C8.62338 7.48032 8.72953 7.40063 8.84863 7.3457C8.96781 7.29075 9.09732 7.26172 9.22852 7.26172C9.35972 7.26172 9.48921 7.29074 9.6084 7.3457C9.72752 7.40064 9.83365 7.4803 9.91895 7.58008C10.4382 8.09495 10.9522 8.61013 11.4609 9.125C11.563 9.21194 11.645 9.32059 11.7012 9.44238C11.7574 9.5642 11.7871 9.69686 11.7871 9.83105C11.7871 9.9652 11.7574 10.098 11.7012 10.2197C11.645 10.3414 11.5629 10.4493 11.4609 10.5361C11.166 10.8316 10.8554 11.1155 10.5801 11.4268C10.413 11.6159 10.2057 11.7654 9.97363 11.8643C9.74153 11.9631 9.49027 12.0097 9.23828 11.999H9.08496C8.25963 11.9289 7.45698 11.6923 6.72461 11.3047C5.07369 10.5061 3.61211 9.36286 2.43945 7.95117C1.54781 6.91769 0.841324 5.73733 0.350586 4.46289C0.0945299 3.84979 -0.0241218 3.18744 0.00390625 2.52344C0.0251927 2.11863 0.201703 1.73712 0.496094 1.45898C0.830352 1.14381 1.14137 0.813242 1.46777 0.494141C1.55677 0.398533 1.66343 0.320708 1.78223 0.266602C1.90106 0.212493 2.0297 0.183018 2.16016 0.178711ZM2.16406 0.964844C2.1345 0.964848 2.10512 0.972556 2.08008 0.988281C2.05509 1.00401 2.03532 1.02711 2.02246 1.05371L1.62891 1.44727C1.42041 1.64825 1.23191 1.84593 1.02734 2.04297C0.874799 2.1886 0.784397 2.38773 0.775391 2.59863C0.756595 3.14737 0.858598 3.69345 1.07422 4.19824C1.53621 5.38951 2.20163 6.49167 3.04102 7.4541C4.1454 8.77801 5.51756 9.85286 7.06641 10.6074C7.7083 10.9479 8.4121 11.1552 9.13574 11.2178H9.24609C9.38695 11.2285 9.52864 11.2064 9.65918 11.1523C9.78965 11.0983 9.90596 11.0145 9.99805 10.9072C10.2026 10.6747 10.4107 10.4773 10.6152 10.2803L10.9102 9.98828C11.0479 9.84639 11.0368 9.8108 10.9463 9.67285C10.4217 9.16573 9.89667 8.64954 9.37207 8.12402C9.33806 8.07882 9.28931 8.04649 9.23438 8.0332C9.18124 8.04814 9.13422 8.0802 9.10059 8.12402C8.77009 8.45115 8.45536 8.76278 8.14453 9.08203C8.05359 9.18315 7.94235 9.26368 7.81836 9.31934C7.69447 9.37494 7.56056 9.40455 7.4248 9.40527C7.25035 9.40379 7.07894 9.35642 6.92871 9.26758L6.7168 9.16113C6.57911 9.09414 6.421 9.01547 6.26758 8.9209C5.27304 8.28167 4.39058 7.48227 3.65527 6.55566C3.25155 6.08184 2.92018 5.55064 2.67188 4.97949C2.58711 4.79361 2.56182 4.5854 2.60059 4.38477C2.63938 4.1841 2.73976 4.00014 2.8877 3.85938C3.17089 3.58356 3.44249 3.31585 3.70996 3.04004L3.84375 2.90625C3.98146 2.77224 3.98933 2.74446 3.84375 2.59863L3.4707 2.22363L3.07715 1.83008L2.81738 1.56934C2.64828 1.396 2.4787 1.22311 2.30566 1.05371C2.2928 1.0271 2.27305 1.00401 2.24805 0.988281C2.223 0.972552 2.19363 0.964844 2.16406 0.964844ZM6.12598 2.19043C6.21702 2.15109 6.31961 2.14754 6.41309 2.18066C7.93393 2.82273 9.14704 4.03108 9.79688 5.55078C9.83637 5.64364 9.83885 5.74818 9.80371 5.84277C9.76856 5.93733 9.69885 6.01518 9.6084 6.05957C9.56055 6.08249 9.50811 6.09429 9.45508 6.09473C9.38256 6.09197 9.31235 6.06862 9.25195 6.02832C9.19154 5.98797 9.14275 5.93224 9.1123 5.86621C8.53901 4.52762 7.46992 3.46386 6.12988 2.89844C6.03706 2.85763 5.96369 2.78225 5.9248 2.68848C5.88594 2.59444 5.88488 2.48835 5.92188 2.39355C5.96189 2.30255 6.03484 2.22987 6.12598 2.19043ZM6.32812 0.0341797C6.42228 -0.00782312 6.52941 -0.0116747 6.62598 0.0244141C9.02427 1.03822 10.9365 2.94462 11.9609 5.3418C11.9839 5.38949 11.9975 5.44127 12 5.49414C12.0025 5.54696 11.9939 5.59982 11.9756 5.64941C11.9572 5.69908 11.9289 5.74469 11.8926 5.7832C11.8563 5.82166 11.813 5.8528 11.7646 5.87402C11.6701 5.91396 11.5633 5.91544 11.4678 5.87793C11.3722 5.84038 11.2952 5.76656 11.2529 5.67285C10.3083 3.46283 8.54565 1.70515 6.33496 0.769531C6.28662 0.749708 6.24201 0.720596 6.20508 0.683594C6.16842 0.646784 6.13984 0.602783 6.12012 0.554688C6.10034 0.506261 6.09037 0.453688 6.09082 0.401367C6.09131 0.349311 6.10163 0.29786 6.12207 0.25C6.15988 0.153963 6.234 0.0762057 6.32812 0.0341797Z" fill="#0096F8"/>
</svg>
