<svg width="48" height="48" viewBox="0 0 48 48" fill="none" xmlns="http://www.w3.org/2000/svg">
<path d="M24.1202 24.78C24.0502 24.77 23.9602 24.77 23.8802 24.78C22.1202 24.72 20.7202 23.28 20.7202 21.51C20.7202 19.7 22.1802 18.23 24.0002 18.23C25.8102 18.23 27.2802 19.7 27.2802 21.51C27.2702 23.28 25.8802 24.72 24.1202 24.78Z" stroke="#292D32" stroke-width="1.5" stroke-linecap="round" stroke-linejoin="round"/>
<path d="M30.7398 31.3801C28.9598 33.0101 26.5998 34.0001 23.9998 34.0001C21.3998 34.0001 19.0398 33.0101 17.2598 31.3801C17.3598 30.4401 17.9598 29.5201 19.0298 28.8001C21.7698 26.9801 26.2498 26.9801 28.9698 28.8001C30.0398 29.5201 30.6398 30.4401 30.7398 31.3801Z" stroke="#292D32" stroke-width="1.5" stroke-linecap="round" stroke-linejoin="round"/>
<path d="M24 34C29.5228 34 34 29.5228 34 24C34 18.4772 29.5228 14 24 14C18.4772 14 14 18.4772 14 24C14 29.5228 18.4772 34 24 34Z" stroke="#292D32" stroke-width="1.5" stroke-linecap="round" stroke-linejoin="round"/>
</svg>
